<svg xmlns="http://www.w3.org/2000/svg" viewBox="0 0 376 376" fill="#125171"><path d="M366 341H20V25c0-5.5-4.5-10-10-10S0 19.5 0 25v326c0 5.5 4.5 10 10 10h356c5.5 0 10-4.5 10-10s-4.5-10-10-10zM29.8 317.1h316.5c.6 0 1-.4 1-1s-.4-1-1-1H29.8c-.6 0-1 .4-1 1s.4 1 1 1zm-1-61c0 .6.4 1 1 1H66l55.2 26.5c.7.3 1.4.5 2.2.5 1.7 0 3.3-.8 4.2-2.3l15.8-24.7h202.9c.6 0 1-.4 1-1s-.4-1-1-1H144.6l32.9-51.2 43.4 39.2c1.9 1.7 4.7 1.7 6.6.1l54.8-46 27.6 17.4c2.3 1.5 5.4.8 6.9-1.6 1.5-2.3.8-5.4-1.6-6.9l-14.4-9.1h45.4c.6 0 1-.4 1-1s-.4-1-1-1h-48.6l-13.1-8.3c-1.8-1.2-4.2-1-5.9.4l-9.4 7.9h-86.5l-2.9-2.6c-1.1-1-2.6-1.4-4-1.2-1.5.2-2.8 1-3.5 2.3l-1 1.6h-16.8l28.8-58h49.5l4.3 8.8c1.3 2.6 3.8 4.4 6.8 4.8 2.9.3 5.8-.9 7.6-3.3l8-10.3h42.2l3.9 5.4c2.7 3.8 8 4.7 11.8 2 2.5-1.8 3.7-4.6 3.6-7.5h25.3c.6 0 1-.4 1-1s-.4-1-1-1h-25.6c-.3-.8-.6-1.6-1.2-2.4l-30.7-43.3c-1.6-2.2-4.1-3.5-6.8-3.6-2.7-.1-5.3 1.2-6.9 3.3l-28.7 37.2-23.7-49.1h123.5c.6 0 1-.4 1-1s-.4-1-1-1H221.7l-5.6-11.6c-1.4-2.9-4.4-4.8-7.6-4.8-3.3 0-6.2 1.8-7.7 4.7L195 75H29.8c-.6 0-1 .4-1 1s.4 1 1 1h164.4l-28.8 58h-36.8l-10.8-22.1c-1.4-2.9-4.4-4.8-7.6-4.8-3.2 0-6.2 1.8-7.6 4.7l-10.9 22.1H29.8c-.6 0-1 .4-1 1s.4 1 1 1h60.9l-28.6 58H29.8c-.6 0-1 .4-1 1s.4 1 1 1H61l-5.1 10.4c-2.1 4.2-.4 9.3 3.9 11.4a8.49 8.49 0 0 0 11.4-3.8L80 197h60.2c1.6 1.9 4 3.1 6.5 3.1 2.6 0 5-1.2 6.6-3.1h16.8l-37.2 58h-48l-19.2-9.1c-2.5-1.2-5.5-.1-6.7 2.4-1.2 2.5-.1 5.5 2.3 6.7l.4.2H29.8c-.6-.1-1 .4-1 .9zm252.7-147.5l18.8 26.5H261l20.5-26.5zm-73.1-22l23.5 48.5h-47.6l24.1-48.5zm-44.1 50.5l-17.6 35.4-17.2-35.4h34.8zm-54.7 0h1l28.2 58H80.9l28.7-58zm157.3 60l-42.5 35.7-39.4-35.7h81.9zm-135.4 60l-10 15.5-32.4-15.5h42.4z"/></svg>