<svg xmlns="http://www.w3.org/2000/svg" viewBox="0 0 270.6 270.6" fill="#125171"><path d="M234.9 241.4h-23.6v-60.1c15.3-2.8 27-16.3 27-32.4V81.6c0-28.8-10.1-57-28.4-79.3-1.1-1.4-2.8-2.2-4.6-2.2s-3.5.8-4.6 2.2c-18.3 22.3-28.4 50.5-28.4 79.3v67.3c0 16.1 11.7 29.6 27 32.4v60.1h-58v-60.1c15.3-2.8 27-16.3 27-32.4V81.6c0-28.8-10.1-57-28.4-79.3-1.1-1.4-2.8-2.2-4.6-2.2s-3.5.8-4.6 2.2c-18.3 22.3-28.4 50.5-28.4 79.3v67.3c0 16.1 11.7 29.6 27 32.4v60.1h-58v-60.1c15.3-2.8 27-16.3 27-32.4V81.6c0-28.8-10.1-57-28.4-79.3C68.8.9 67.1.1 65.3.1s-3.5.8-4.6 2.2C42.4 24.6 32.3 52.8 32.3 81.6v67.3c0 16.1 11.7 29.6 27 32.4v60.1H35.7c-3.3 0-6 2.7-6 6v17.2c0 3.3 2.7 6 6 6h199.2c3.3 0 6-2.7 6-6v-17.2c0-3.3-2.7-6-6-6zm-50.6-92.6V81.5c0-23.5 7.4-46.5 21-65.6 13.6 19.1 21 42.1 21 65.6v67.3c0 11.6-9.4 21-21 21s-21-9.4-21-21zm-70 0V81.5c0-23.5 7.4-46.5 21-65.6 13.6 19.1 21 42.1 21 65.6v67.3c0 11.6-9.4 21-21 21s-21-9.4-21-21zm-70 0V81.5c0-23.5 7.4-46.5 21-65.6 13.6 19.1 21 42.1 21 65.6v67.3c0 11.6-9.4 21-21 21s-21-9.4-21-21zm184.6 109.8H41.7v-5.2h187.2v5.2z"/></svg>