<svg xmlns="http://www.w3.org/2000/svg" viewBox="0 0 258.72 258.72" fill="#125171"><path d="M228.36 246.72h-4.67V48c0-3.31-2.69-6-6-6h-76.33c-3.31 0-6 2.69-6 6v198.72h-8V25.27c0-2.06-1.06-3.98-2.8-5.08a5.999 5.999 0 0 0-5.79-.33l-12.35 5.92V5.99c0-3.31-2.69-6-6-6s-6 2.69-6 6v25.55L77.6 39.61c-2.08 1-3.4 3.1-3.4 5.41v33.65L41.85 98.91a6.016 6.016 0 0 0-2.82 5.09v142.72h-8.67c-3.31 0-6 2.69-6 6s2.69 6 6 6H228.36c3.31 0 6-2.69 6-6s-2.69-6-6-6zM211.69 54v71.67c-.22-.02-.44-.04-.67-.04h-63c-.23 0-.45.02-.67.04V54h64.33zM51.02 246.72v-139.4l32.35-20.24a6.016 6.016 0 0 0 2.82-5.09v-33.2l29.17-13.99v211.91H51.03zm134.5 0V239c0-3.31-2.69-6-6-6s-6 2.69-6 6v7.72h-26.17V137.59c.22.02.44.04.67.04h63c.23 0 .45-.01.67-.04v109.13h-26.17z"/><path d="M70.32 132.11c-3.31 0-6 2.69-6 6v7.37c0 3.31 2.69 6 6 6s6-2.69 6-6v-7.37c0-3.31-2.69-6-6-6zM95.38 132.11c-3.31 0-6 2.69-6 6v7.37c0 3.31 2.69 6 6 6s6-2.69 6-6v-7.37c0-3.31-2.69-6-6-6zM70.32 157.9c-3.31 0-6 2.69-6 6v7.37c0 3.31 2.69 6 6 6s6-2.69 6-6v-7.37c0-3.31-2.69-6-6-6zM95.38 157.9c-3.31 0-6 2.69-6 6v7.37c0 3.31 2.69 6 6 6s6-2.69 6-6v-7.37c0-3.31-2.69-6-6-6zM70.32 183.7c-3.31 0-6 2.69-6 6v7.37c0 3.31 2.69 6 6 6s6-2.69 6-6v-7.37c0-3.31-2.69-6-6-6zM95.38 183.7c-3.31 0-6 2.69-6 6v7.37c0 3.31 2.69 6 6 6s6-2.69 6-6v-7.37c0-3.31-2.69-6-6-6zM70.32 209.49c-3.31 0-6 2.69-6 6v7.37c0 3.31 2.69 6 6 6s6-2.69 6-6v-7.37c0-3.31-2.69-6-6-6zM95.38 209.49c-3.31 0-6 2.69-6 6v7.37c0 3.31 2.69 6 6 6s6-2.69 6-6v-7.37c0-3.31-2.69-6-6-6zM167 183.7c-3.31 0-6 2.69-6 6v7.37c0 3.31 2.69 6 6 6s6-2.69 6-6v-7.37c0-3.31-2.69-6-6-6zM192.06 183.7c-3.31 0-6 2.69-6 6v7.37c0 3.31 2.69 6 6 6s6-2.69 6-6v-7.37c0-3.31-2.69-6-6-6zM167 154.22c-3.31 0-6 2.69-6 6v7.37c0 3.31 2.69 6 6 6s6-2.69 6-6v-7.37c0-3.31-2.69-6-6-6zM192.06 154.22c-3.31 0-6 2.69-6 6v7.37c0 3.31 2.69 6 6 6s6-2.69 6-6v-7.37c0-3.31-2.69-6-6-6zM167 113.63c3.31 0 6-2.69 6-6v-7.37c0-3.31-2.69-6-6-6s-6 2.69-6 6v7.37c0 3.31 2.69 6 6 6zM192.06 113.63c3.31 0 6-2.69 6-6v-7.37c0-3.31-2.69-6-6-6s-6 2.69-6 6v7.37c0 3.31 2.69 6 6 6zM167 84.29c3.31 0 6-2.69 6-6v-7.37c0-3.31-2.69-6-6-6s-6 2.69-6 6v7.37c0 3.31 2.69 6 6 6zM192.06 84.29c3.31 0 6-2.69 6-6v-7.37c0-3.31-2.69-6-6-6s-6 2.69-6 6v7.37c0 3.31 2.69 6 6 6z" fill="#86adca"/></svg>