<svg xmlns="http://www.w3.org/2000/svg" viewBox="0 0 254.6 254.6" fill="#125171"><path d="M195.5 247.2L147.1 49.7c-.7-2.7-3.1-4.6-5.8-4.6h-7.9V23.8c4-2.1 6.7-6.3 6.7-11.1 0-7-5.7-12.7-12.7-12.7-7 0-12.7 5.7-12.7 12.7 0 4.8 2.7 9 6.7 11.1v21.3h-9.1c-2.8 0-5.2 1.9-5.8 4.6L59.3 247.2c-.8 3.2 1.2 6.5 4.4 7.2 3.2.8 6.5-1.2 7.2-4.4l8.2-34.2h42.3v32.8c0 3.3 2.7 6 6 6s6-2.7 6-6v-32.8h42.1l8.4 34.3c.7 2.7 3.1 4.6 5.8 4.6.5 0 1-.1 1.4-.2 3.2-.8 5.2-4 4.4-7.3zM93 157.1l19.3 8.6-23.9 10.7 4.6-19.3zm65.1-12l-24.8 11.1v-37.4l20.6 9.1 4.2 17.1zm-16.2-35.6l6.7-3 1.7 6.7-8.4-3.7zm3.8-14.9l-12.4 5.6V75.7h7.8l4.6 18.9zm-24.4 5.8L108 94.5l4.5-18.8h8.8v24.7zm-16.2 6l7.3 3.2-9 4 1.7-7.2zm-5.2 21.9c.2-.1.4-.1.6-.2l20.9-9.3v37.7l-25.5-11.3 4-16.9zM161 157l4.7 19.2-23.9-10.6L161 157zm-24.5-99.8l1.6 6.6h-22.8l1.6-6.6h19.6zM81.8 203.8l3.1-12.9c.4-.1.7-.2 1.1-.4l35.3-15.8v29.1H81.8zm51.5 0v-28.9l35.4 15.7c.2.1.4.2.6.2l3.2 13h-39.2z"/></svg>