<svg version="1.1" xmlns="http://www.w3.org/2000/svg" x="0" y="0" viewBox="0 0 376 376" xml:space="preserve" fill="#125171"><path d="M366 341H20V25c0-5.5-4.5-10-10-10S0 19.5 0 25v326c0 5.5 4.5 10 10 10h356c5.5 0 10-4.5 10-10C376 345.5 371.5 341 366 341zM29.8 317.1h316.5c0.6 0 1-0.4 1-1 0-0.6-0.4-1-1-1H29.8c-0.6 0-1 0.4-1 1C28.8 316.7 29.2 317.1 29.8 317.1zM28.8 256.1c0 0.6 0.4 1 1 1h36.2l55.2 26.5c0.7 0.3 1.4 0.5 2.2 0.5 1.7 0 3.3-0.8 4.2-2.3l15.8-24.7h202.9c0.6 0 1-0.4 1-1 0-0.6-0.4-1-1-1H144.6l32.9-51.2 43.4 39.2c1.9 1.7 4.7 1.7 6.6 0.1l54.8-46 27.6 17.4c2.3 1.5 5.4 0.8 6.9-1.6 1.5-2.3 0.8-5.4-1.6-6.9l-14.4-9.1h45.4c0.6 0 1-0.4 1-1 0-0.6-0.4-1-1-1h-48.6l-13.1-8.3c-1.8-1.2-4.2-1-5.9 0.4l-9.4 7.9h-86.5l-2.9-2.6c-1.1-1-2.6-1.4-4-1.2 -1.5 0.2-2.8 1-3.5 2.3l-1 1.6h-16.8l28.8-58h49.5l4.3 8.8c1.3 2.6 3.8 4.4 6.8 4.8 2.9 0.3 5.8-0.9 7.6-3.3l8-10.3h42.2l3.9 5.4c2.7 3.8 8 4.7 11.8 2 2.5-1.8 3.7-4.6 3.6-7.5h25.3c0.6 0 1-0.4 1-1 0-0.6-0.4-1-1-1h-25.6c-0.3-0.8-0.6-1.6-1.2-2.4l-30.7-43.3c-1.6-2.2-4.1-3.5-6.8-3.6 -2.7-0.1-5.3 1.2-6.9 3.3L246.4 126.2l-23.7-49.1h123.5c0.6 0 1-0.4 1-1 0-0.6-0.4-1-1-1H221.7l-5.6-11.6c-1.4-2.9-4.4-4.8-7.6-4.8 -3.3 0-6.2 1.8-7.7 4.7l-5.8 11.6H29.8c-0.6 0-1 0.4-1 1 0 0.6 0.4 1 1 1h164.4l-28.8 58h-36.8l-10.8-22.1c-1.4-2.9-4.4-4.8-7.6-4.8 0 0 0 0 0 0 -3.2 0-6.2 1.8-7.6 4.7l-10.9 22.1H29.8c-0.6 0-1 0.4-1 1 0 0.6 0.4 1 1 1h60.9l-28.6 58H29.8c-0.6 0-1 0.4-1 1 0 0.6 0.4 1 1 1h31.2l-5.1 10.4c-2.1 4.2-0.4 9.3 3.9 11.4 1.2 0.6 2.5 0.9 3.8 0.9 3.1 0 6.1-1.7 7.6-4.7l8.8-17.9h60.2c1.6 1.9 4 3.1 6.5 3.1 0 0 0 0 0 0 2.6 0 5-1.2 6.6-3.1h16.8l-37.2 58H84.9L65.7 245.9c-2.5-1.2-5.5-0.1-6.7 2.4 -1.2 2.5-0.1 5.5 2.3 6.7l0.4 0.2H29.8C29.2 255.1 28.8 255.6 28.8 256.1zM281.5 108.6l18.8 26.5h-39.3L281.5 108.6zM208.4 86.6l23.5 48.5h-47.6L208.4 86.6zM164.3 137.1l-17.6 35.4 -17.2-35.4H164.3zM109.6 137.1h1l28.2 58H80.9L109.6 137.1zM266.9 197.1l-42.5 35.7 -39.4-35.7H266.9zM131.5 257.1l-10 15.5 -32.4-15.5H131.5z"/></svg>