<svg version="1.1" xmlns="http://www.w3.org/2000/svg" viewBox="0 0 258.72 258.72" xmlns:xlink="http://www.w3.org/1999/xlink" enable-background="new 0 0 258.724 258.724" fill="#125171">
    <path d="m228.36 246.72h-4.67v-198.72c0-3.31-2.69-6-6-6h-76.33c-3.31 0-6 2.69-6 6v198.72h-8v-221.45c0-2.06-1.06-3.98-2.8-5.08-1.75-1.1-3.93-1.22-5.79-0.33l-12.35 5.92v-19.79c0-3.31-2.69-6-6-6s-6 2.69-6 6v25.55l-16.82 8.07c-2.08 1-3.4 3.1-3.4 5.41v33.65l-32.35 20.24c-1.75 1.1-2.82 3.02-2.82 5.09v142.72h-8.67c-3.31 0-6 2.69-6 6s2.69 6 6 6h14.67 76.33 20 76.33 10.67c3.31 0 6-2.69 6-6s-2.69-6-6-6zm-16.67-192.72v71.67c-0.22-0.02-0.44-0.04-0.67-0.04h-63c-0.23 0-0.45 0.02-0.67 0.04v-71.67h64.33zm-160.67 192.72v-139.4l32.35-20.24c1.75-1.1 2.82-3.02 2.82-5.09v-33.2l29.17-13.99v211.91h-64.33zm134.5 0v-7.72c0-3.31-2.69-6-6-6s-6 2.69-6 6v7.72h-26.17v-109.13c0.22 0.02 0.44 0.04 0.67 0.04h63c0.23 0 0.45-0.01 0.67-0.04v109.13h-26.17z" />
    <path d="m70.32 132.11c-3.31 0-6 2.69-6 6v7.37c0 3.31 2.69 6 6 6s6-2.69 6-6v-7.37c0-3.31-2.69-6-6-6z" fill="#86adca" />
    <path d="m95.38 132.11c-3.31 0-6 2.69-6 6v7.37c0 3.31 2.69 6 6 6s6-2.69 6-6v-7.37c0-3.31-2.69-6-6-6z" fill="#86adca" />
    <path d="m70.32 157.9c-3.31 0-6 2.69-6 6v7.37c0 3.31 2.69 6 6 6s6-2.69 6-6v-7.37c0-3.31-2.69-6-6-6z" fill="#86adca" />
    <path d="m95.38 157.9c-3.31 0-6 2.69-6 6v7.37c0 3.31 2.69 6 6 6s6-2.69 6-6v-7.37c0-3.31-2.69-6-6-6z" fill="#86adca" />
    <path d="m70.32 183.7c-3.31 0-6 2.69-6 6v7.37c0 3.31 2.69 6 6 6s6-2.69 6-6v-7.37c0-3.31-2.69-6-6-6z" fill="#86adca" />
    <path d="m95.38 183.7c-3.31 0-6 2.69-6 6v7.37c0 3.31 2.69 6 6 6s6-2.69 6-6v-7.37c0-3.31-2.69-6-6-6z" fill="#86adca" />
    <path d="m70.32 209.49c-3.31 0-6 2.69-6 6v7.37c0 3.31 2.69 6 6 6s6-2.69 6-6v-7.37c0-3.31-2.69-6-6-6z" fill="#86adca" />
    <path d="m95.38 209.49c-3.31 0-6 2.69-6 6v7.37c0 3.31 2.69 6 6 6s6-2.69 6-6v-7.37c0-3.31-2.69-6-6-6z" fill="#86adca" />
    <path d="m167 183.7c-3.31 0-6 2.69-6 6v7.37c0 3.31 2.69 6 6 6s6-2.69 6-6v-7.37c0-3.31-2.69-6-6-6z" fill="#86adca" />
    <path d="m192.06 183.7c-3.31 0-6 2.69-6 6v7.37c0 3.31 2.69 6 6 6s6-2.69 6-6v-7.37c0-3.31-2.69-6-6-6z" fill="#86adca" />
    <path d="m167 154.22c-3.31 0-6 2.69-6 6v7.37c0 3.31 2.69 6 6 6s6-2.69 6-6v-7.37c0-3.31-2.69-6-6-6z" fill="#86adca" />
    <path d="m192.06 154.22c-3.31 0-6 2.69-6 6v7.37c0 3.31 2.69 6 6 6s6-2.69 6-6v-7.37c0-3.31-2.69-6-6-6z" fill="#86adca" />
    <path d="m167 113.63c3.31 0 6-2.69 6-6v-7.37c0-3.31-2.69-6-6-6s-6 2.69-6 6v7.37c0 3.31 2.69 6 6 6z" fill="#86adca"/>
    <path d="m192.06 113.63c3.31 0 6-2.69 6-6v-7.37c0-3.31-2.69-6-6-6s-6 2.69-6 6v7.37c0 3.31 2.69 6 6 6z"  fill="#86adca"/>
    <path d="m167 84.29c3.31 0 6-2.69 6-6v-7.37c0-3.31-2.69-6-6-6s-6 2.69-6 6v7.37c0 3.31 2.69 6 6 6z"  fill="#86adca"/>
    <path d="m192.06 84.29c3.31 0 6-2.69 6-6v-7.37c0-3.31-2.69-6-6-6s-6 2.69-6 6v7.37c0 3.31 2.69 6 6 6z"  fill="#86adca"/>
</svg>
