<svg version="1.1" xmlns="http://www.w3.org/2000/svg" viewBox="0 0 254.6 254.6" enable-background="new 0 0 254.58 254.58" fill="#125171"><path d="m195.5 247.2l-48.4-197.5c-0.7-2.7-3.1-4.6-5.8-4.6h-7.9v-21.3c4-2.1 6.7-6.3 6.7-11.1 0-7-5.7-12.7-12.7-12.7-7 0-12.7 5.7-12.7 12.7 0 4.8 2.7 9 6.7 11.1v21.3h-9.1c-2.8 0-5.2 1.9-5.8 4.6l-47.2 197.5c-0.8 3.2 1.2 6.5 4.4 7.2 3.2 0.8 6.5-1.2 7.2-4.4l8.2-34.2h42.3v32.8c0 3.3 2.7 6 6 6 3.3 0 6-2.7 6-6v-32.8h42.1l8.4 34.3c0.7 2.7 3.1 4.6 5.8 4.6 0.5 0 1-0.1 1.4-0.2 3.2-0.8 5.2-4 4.4-7.3zm-102.5-90.1l19.3 8.6-23.9 10.7 4.6-19.3zm65.1-12l-24.8 11.1v-37.4l20.6 9.1 4.2 17.1zm-16.2-35.6l6.7-3 1.7 6.7-8.4-3.7zm3.8-14.9l-12.4 5.6v-24.5h7.8l4.6 18.9zm-24.4 5.8l-13.3-5.9 4.5-18.8h8.8v24.7zm-16.2 6l7.3 3.2-9 4 1.7-7.2zm-5.2 21.9c0.2-0.1 0.4-0.1 0.6-0.2l20.9-9.3v37.7l-25.5-11.3 4-16.9zm61.1 28.7l4.7 19.2-23.9-10.6 19.2-8.6zm-24.5-99.8l1.6 6.6h-22.8l1.6-6.6h19.6zm-54.7 146.6l3.1-12.9c0.4-0.1 0.7-0.2 1.1-0.4l35.3-15.8v29.1h-39.5zm51.5 0v-28.9l35.4 15.7c0.2 0.1 0.4 0.2 0.6 0.2l3.2 13h-39.2z"/></svg>