<svg version="1.1" xmlns="http://www.w3.org/2000/svg" viewBox="0 0 258.7 258.7" enable-background="new 0 0 258.724 258.724" fill="#125171"><path d="m228.4 246.7h-4.7v-198.7c0-3.3-2.7-6-6-6h-76.3c-3.3 0-6 2.7-6 6v198.7h-8v-221.4c0-2.1-1.1-4-2.8-5.1-1.7-1.1-3.9-1.2-5.8-0.3l-12.3 5.9v-19.8c0-3.3-2.7-6-6-6s-6 2.7-6 6v25.5l-16.8 8.1c-2.1 1-3.4 3.1-3.4 5.4v33.7l-32.3 20.2c-1.8 1.1-2.8 3-2.8 5.1v142.7h-8.7c-3.3 0-6 2.7-6 6s2.7 6 6 6h14.7 76.3 20 76.3 10.7c3.3 0 6-2.7 6-6s-2.7-6-6-6zm-16.7-192.7v71.7c-0.2 0-0.4 0-0.7 0h-63c-0.2 0-0.4 0-0.7 0v-71.7h64.3zm-160.7 192.7v-139.4l32.3-20.2c1.8-1.1 2.8-3 2.8-5.1v-33.2l29.2-14v211.9h-64.3zm134.5 0v-7.7c0-3.3-2.7-6-6-6s-6 2.7-6 6v7.7h-26.2v-109.1c0.2 0 0.4 0 0.7 0h63c0.2 0 0.4 0 0.7 0v109.1h-26.2zM70.3 132.1c-3.3 0-6 2.7-6 6v7.4c0 3.3 2.7 6 6 6s6-2.7 6-6v-7.4c0-3.3-2.7-6-6-6zM95.4 132.1c-3.3 0-6 2.7-6 6v7.4c0 3.3 2.7 6 6 6s6-2.7 6-6v-7.4c0-3.3-2.7-6-6-6zM70.3 157.9c-3.3 0-6 2.7-6 6v7.4c0 3.3 2.7 6 6 6s6-2.7 6-6v-7.4c0-3.3-2.7-6-6-6zM95.4 157.9c-3.3 0-6 2.7-6 6v7.4c0 3.3 2.7 6 6 6s6-2.7 6-6v-7.4c0-3.3-2.7-6-6-6zM70.3 183.7c-3.3 0-6 2.7-6 6v7.4c0 3.3 2.7 6 6 6s6-2.7 6-6v-7.4c0-3.3-2.7-6-6-6zM95.4 183.7c-3.3 0-6 2.7-6 6v7.4c0 3.3 2.7 6 6 6s6-2.7 6-6v-7.4c0-3.3-2.7-6-6-6zM70.3 209.5c-3.3 0-6 2.7-6 6v7.4c0 3.3 2.7 6 6 6s6-2.7 6-6v-7.4c0-3.3-2.7-6-6-6zM95.4 209.5c-3.3 0-6 2.7-6 6v7.4c0 3.3 2.7 6 6 6s6-2.7 6-6v-7.4c0-3.3-2.7-6-6-6zM167 183.7c-3.3 0-6 2.7-6 6v7.4c0 3.3 2.7 6 6 6s6-2.7 6-6v-7.4c0-3.3-2.7-6-6-6zM192.1 183.7c-3.3 0-6 2.7-6 6v7.4c0 3.3 2.7 6 6 6s6-2.7 6-6v-7.4c0-3.3-2.7-6-6-6zM167 154.2c-3.3 0-6 2.7-6 6v7.4c0 3.3 2.7 6 6 6s6-2.7 6-6v-7.4c0-3.3-2.7-6-6-6zM192.1 154.2c-3.3 0-6 2.7-6 6v7.4c0 3.3 2.7 6 6 6s6-2.7 6-6v-7.4c0-3.3-2.7-6-6-6zM167 113.6c3.3 0 6-2.7 6-6v-7.4c0-3.3-2.7-6-6-6s-6 2.7-6 6v7.4c0 3.3 2.7 6 6 6zM192.1 113.6c3.3 0 6-2.7 6-6v-7.4c0-3.3-2.7-6-6-6s-6 2.7-6 6v7.4c0 3.3 2.7 6 6 6zM167 84.3c3.3 0 6-2.7 6-6v-7.4c0-3.3-2.7-6-6-6s-6 2.7-6 6v7.4c0 3.3 2.7 6 6 6zM192.1 84.3c3.3 0 6-2.7 6-6v-7.4c0-3.3-2.7-6-6-6s-6 2.7-6 6v7.4c0 3.3 2.7 6 6 6z"/></svg>